HIERARCHY
ROOT Hips
{
 OFFSET 0.000000 0.000000 0.000000
 CHANNELS 6 Xposition Yposition Zposition Yrotation Xrotation Zrotation
 JOINT Chest
 {
  OFFSET 0.000000 13.173100 -0.061900
  CHANNELS 3 Yrotation Xrotation Zrotation
  JOINT Chest2
  {
   OFFSET 0.000000 8.040800 0.126200
   CHANNELS 3 Yrotation Xrotation Zrotation
   JOINT Chest3
   {
    OFFSET 0.000000 7.994400 0.000000
    CHANNELS 3 Yrotation Xrotation Zrotation
    JOINT Chest4
    {
     OFFSET 0.000000 7.986200 0.000000
     CHANNELS 3 Yrotation Xrotation Zrotation
     JOINT Neck
     {
      OFFSET 0.000000 12.259400 0.000000
      CHANNELS 3 Yrotation Xrotation Zrotation
      JOINT Head
      {
       OFFSET 0.000000 7.518700 0.267100
       CHANNELS 3 Yrotation Xrotation Zrotation
       End Site
       {
        OFFSET 0.000000 13.617700 0.141000
       }
      }
     }
     JOINT RightCollar
     {
      OFFSET -2.983800 8.314300 0.000000
      CHANNELS 3 Yrotation Xrotation Zrotation
      JOINT RightShoulder
      {
       OFFSET -16.133400 0.000000 0.000000
       CHANNELS 3 Yrotation Xrotation Zrotation
       JOINT RightElbow
       {
        OFFSET 0.000000 -29.822100 0.000000
        CHANNELS 3 Yrotation Xrotation Zrotation
        JOINT RightWrist
        {
         OFFSET 0.000000 -24.437700 0.010900
         CHANNELS 3 Yrotation Xrotation Zrotation
         End Site
         {
          OFFSET 0.000000 -18.312300 0.000000
         }
        }
       }
      }
     }
     JOINT LeftCollar
     {
      OFFSET 2.983800 8.314300 0.000000
      CHANNELS 3 Yrotation Xrotation Zrotation
      JOINT LeftShoulder
      {
       OFFSET 16.133400 0.000000 0.000000
       CHANNELS 3 Yrotation Xrotation Zrotation
       JOINT LeftElbow
       {
        OFFSET 0.000000 -29.822100 0.000000
        CHANNELS 3 Yrotation Xrotation Zrotation
        JOINT LeftWrist
        {
         OFFSET 0.000000 -24.437700 0.010900
         CHANNELS 3 Yrotation Xrotation Zrotation
         End Site
         {
          OFFSET 0.000000 -18.312300 0.000000
         }
        }
       }
      }
     }
    }
   }
  }
 }
 JOINT RightHip
 {
  OFFSET -11.206700 0.306200 0.030900
  CHANNELS 3 Yrotation Xrotation Zrotation
  JOINT RightKnee
  {
   OFFSET 0.000000 -57.334900 0.009400
   CHANNELS 3 Yrotation Xrotation Zrotation
   JOINT RightAnkle
   {
    OFFSET 0.000000 -43.376200 0.036600
    CHANNELS 3 Yrotation Xrotation Zrotation
    JOINT RightToe
    {
     OFFSET 0.000000 -10.035500 18.363100
     CHANNELS 3 Yrotation Xrotation Zrotation
     End Site
     {
      OFFSET 0.000000 -1.618500 7.239000
     }
    }
   }
  }
 }
 JOINT LeftHip
 {
  OFFSET 11.206700 0.306200 0.030900
  CHANNELS 3 Yrotation Xrotation Zrotation
  JOINT LeftKnee
  {
   OFFSET 0.000000 -57.334900 0.009400
   CHANNELS 3 Yrotation Xrotation Zrotation
   JOINT LeftAnkle
   {
    OFFSET 0.000000 -43.376200 0.036600
    CHANNELS 3 Yrotation Xrotation Zrotation
    JOINT LeftToe
    {
     OFFSET 0.000000 -10.035500 18.363100
     CHANNELS 3 Yrotation Xrotation Zrotation
     End Site
     {
      OFFSET 0.000000 -1.618500 7.239000
     }
    }
   }
  }
 }
}
MOTION
Frames: 16
Frame Time: 0.008333
0.000000 110.232800 0.000000 0.000000 -5.767877 0.000000 0.000000 11.653817 0.000000 0.000000 -5.885947 0.000000 0.000000 -0.000000 0.000000 0.000000 -0.000000 0.000000 0.000000 12.528835 0.000000 0.000000 0.711642 0.000000 0.000000 -0.000000 0.000000 0.000000 0.000000 -90.000000 0.000000 -2.309062 0.000000 0.000000 2.309062 0.000000 0.000000 -0.000000 0.000000 0.000000 -0.000000 90.000000 0.000000 -2.309062 0.000000 0.000000 2.309062 0.000000 0.000000 8.520406 0.000000 0.000000 1.905762 0.000000 -0.000000 -4.658285 0.000000 0.000000 -0.000000 0.000000 0.000000 8.520406 0.000000 0.000000 1.905762 0.000000 -0.000000 -4.658285 0.000000 0.000000 -0.000000 0.000000
-97.453306 64.729628 86.357607 172.374061 -36.463637 -2.885582 1.727904 21.306651 2.301340 0.199541 2.933807 0.420987 0.341490 4.709967 0.666783 1.659954 18.247885 2.856123 -1.468168 18.099300 -1.650558 -2.183487 -2.332776 -2.614719 -3.420865 0.745512 -4.524412 -2.794658 -2.544531 3.574313 140.426683 -84.558667 -127.548553 1.971113 -0.244348 -8.082872 -7.439202 -2.264282 -0.613440 -3.049800 -32.465009 13.229637 174.665497 -58.602279 163.276551 -7.959593 -27.590971 19.990520 -5.116978 -43.886097 5.486298 -109.065874 87.869561 -103.919056 0.273435 -9.583375 -4.474115 0.259183 -0.329284 0.133033 -3.451433 -41.127547 5.874841 74.345099 83.451483 64.298809 -5.074723 -13.053401 7.469495 0.309336 1.102404 0.207784
-97.448565 64.727205 86.356371 172.352181 -36.453117 -2.879423 1.744065 21.317180 2.315112 0.199954 2.960530 0.430640 0.340172 4.721792 0.672044 1.678739 18.317223 2.898431 -1.504099 18.100278 -1.704988 -2.217072 -2.224914 -2.656585 -3.461667 0.744626 -4.545482 -2.804710 -2.556693 3.575823 141.083258 -84.511492 -128.205418 1.940056 -0.275276 -8.161300 -7.528795 -2.274165 -0.631730 -3.308365 -32.665117 13.527223 174.737991 -58.246487 163.266710 -8.311797 -28.276519 20.908204 -5.116962 -43.900574 5.506930 -109.218537 87.873785 -104.076332 0.277048 -9.576986 -4.480707 0.248216 -0.337779 0.135934 -3.418857 -41.138345 5.887098 74.362945 83.465446 64.302298 -5.062951 -13.054921 7.502723 0.290273 1.092806 0.192207
-97.443732 64.722647 86.356425 172.338274 -36.429299 -2.874925 1.749577 21.377634 2.345293 0.204043 2.937644 0.422293 0.344399 4.717543 0.672526 1.687690 18.353614 2.917993 -1.526782 18.144009 -1.735142 -2.240702 -2.110012 -2.691657 -3.497054 0.780233 -4.545528 -2.803438 -2.629730 3.562388 141.417391 -84.478722 -128.535136 1.866483 -0.287728 -8.260088 -7.613715 -2.242586 -0.630483 -3.531087 -32.877563 13.783557 174.837267 -57.876790 163.235730 -8.638450 -28.869563 21.825350 -5.113305 -43.929860 5.519434 -109.403610 87.878936 -104.256641 0.276040 -9.571926 -4.487856 0.258138 -0.350483 0.138536 -3.393226 -41.163935 5.892773 74.342186 83.477033 64.291162 -5.076137 -13.054832 7.501322 0.297580 1.088897 0.186323
-97.437480 64.717673 86.355639 172.321214 -36.404636 -2.869665 1.761850 21.385779 2.358822 0.205179 2.956744 0.427567 0.345066 4.789339 0.695816 1.687961 18.311809 2.902556 -1.537121 18.209032 -1.751462 -2.255090 -1.989387 -2.718703 -3.527264 0.828553 -4.532449 -2.824775 -2.619206 3.561362 142.348913 -84.435789 -129.468404 1.855954 -0.330598 -8.322550 -7.688011 -2.195151 -0.614972 -3.715602 -33.102355 13.995654 174.962554 -57.494880 163.186158 -8.913734 -29.338448 22.683173 -5.105863 -43.958326 5.525658 -109.843577 87.918855 -104.679736 0.246386 -9.571343 -4.505459 0.258540 -0.353567 0.139713 -3.368435 -41.187945 5.904058 74.330432 83.489395 64.275089 -5.076199 -13.060316 7.515733 0.291821 1.088968 0.182852
-97.427921 64.716924 86.348045 172.292399 -36.412426 -2.863126 1.789314 21.403504 2.373218 0.205824 2.972322 0.431889 0.347707 4.829417 0.707404 1.693365 18.331370 2.910270 -1.543117 18.276414 -1.762052 -2.263414 -1.864374 -2.736578 -3.556210 0.873403 -4.518570 -2.850673 -2.614119 3.554860 143.304142 -84.459665 -130.427699 1.912037 -0.408541 -8.374106 -7.758812 -2.151572 -0.597972 -3.853125 -33.337721 14.163576 175.087467 -57.111055 163.133935 -9.136842 -29.686975 23.447233 -5.093000 -43.955448 5.546335 -110.108210 87.915126 -104.940394 0.253664 -9.562185 -4.509156 0.251898 -0.368422 0.137260 -3.337588 -41.175521 5.925494 74.428155 83.500234 64.355077 -5.071471 -13.073199 7.548751 0.267927 1.081945 0.172016
-97.420109 64.712508 86.343296 172.272227 -36.394843 -2.851393 1.806175 21.431856 2.387252 0.206208 2.952996 0.425733 0.348452 4.870984 0.721275 1.691888 18.306963 2.901094 -1.536402 18.390433 -1.752103 -2.264063 -1.737923 -2.746768 -3.576943 0.963661 -4.496452 -2.858425 -2.695969 3.535402 143.616746 -84.465624 -130.751956 1.912915 -0.437814 -8.412380 -7.822725 -2.060924 -0.576248 -3.930683 -33.586374 14.290155 175.165559 -56.741293 163.107982 -9.313161 -29.945249 24.099773 -5.083789 -43.978153 5.554252 -110.514130 87.926546 -105.339910 0.249949 -9.564823 -4.518130 0.242038 -0.372150 0.135289 -3.315704 -41.191711 5.931752 74.473899 83.506365 64.395701 -5.071048 -13.077728 7.559519 0.258812 1.077884 0.164013
-97.426809 64.702040 86.341948 172.277498 -36.336322 -2.789908 1.770724 21.459736 2.344545 0.210800 2.925264 0.414720 0.346844 4.849837 0.713690 1.700158 18.385065 2.931123 -1.534439 18.436072 -1.760692 -2.252497 -1.610693 -2.751362 -3.597837 0.988445 -4.495116 -2.864941 -2.782010 3.514357 143.840317 -84.453527 -130.993890 1.922703 -0.465633 -8.401647 -7.884756 -2.036207 -0.571010 -3.943602 -33.850534 14.382975 175.147373 -56.400531 163.149356 -9.461436 -30.152733 24.643975 -5.039059 -44.067138 5.457049 -112.226688 87.938909 -107.056967 0.279546 -9.583141 -4.502529 0.207145 -0.379043 0.115889 -3.262213 -41.252268 5.853187 74.477704 83.512901 64.399597 -5.105635 -13.087408 7.547491 0.296233 1.089141 0.183116
-97.412645 64.703812 86.326684 172.248849 -36.363078 -2.785899 1.796063 21.534362 2.374713 0.206492 2.991540 0.434867 0.352756 4.769625 0.686808 1.705302 18.461107 2.958274 -1.521598 18.482455 -1.766607 -2.224679 -1.481526 -2.752941 -3.615266 1.022006 -4.490892 -2.882627 -2.735229 3.503128 144.774015 -84.302984 -131.923406 1.909634 -0.457824 -8.429398 -7.940064 -2.002396 -0.564128 -3.902666 -34.132617 14.454429 175.017747 -56.103958 163.286298 -9.601178 -30.354288 25.102388 -5.037995 -44.039005 5.472550 -112.983298 87.956250 -107.813477 0.309437 -9.593554 -4.496311 0.168637 -0.385735 0.092728 -3.238727 -41.221558 5.880249 74.525467 83.529399 64.439873 -5.094303 -13.070343 7.557757 0.287146 1.058849 0.177108
-97.399895 64.701078 86.315652 172.233561 -36.356719 -2.782197 1.808976 21.540080 2.383949 0.204536 3.037229 0.446998 0.351860 4.781617 0.691549 1.705075 18.455397 2.954819 -1.491399 18.572803 -1.757936 -2.178516 -1.349241 -2.754636 -3.630207 1.108773 -4.471746 -2.890349 -2.754862 3.482783 145.442131 -84.192752 -132.583766 1.944833 -0.388523 -8.432700 -7.987497 -1.914192 -0.544083 -3.830580 -34.440509 14.507336 174.744273 -55.873260 163.544792 -9.761297 -30.577459 25.512165 -5.070731 -44.044025 5.513674 -113.387102 87.951561 -108.233052 0.310650 -9.602394 -4.508057 0.166681 -0.390246 0.091061 -3.222322 -41.223167 5.899078 74.544374 83.557875 64.445981 -5.078762 -13.076432 7.581538 0.278396 1.050932 0.166627
-97.382299 64.699290 86.302820 172.184935 -36.358007 -2.774491 1.852611 21.593593 2.418713 0.209178 3.024844 0.445350 0.352664 4.853675 0.710732 1.695009 18.363193 2.924890 -1.441380 18.702034 -1.740319 -2.114710 -1.210151 -2.757829 -3.640564 1.242371 -4.442780 -2.896305 -2.859482 3.457535 145.391556 -84.154590 -132.563634 1.964362 -0.372007 -8.377756 -8.024531 -1.782799 -0.513927 -3.738918 -34.782935 14.521531 174.329203 -55.757172 163.909314 -9.930207 -30.845670 25.898238 -5.057628 -44.043468 5.556237 -113.623145 87.942829 -108.461913 0.320915 -9.608326 -4.519289 0.159161 -0.392703 0.088733 -3.189241 -41.219524 5.936802 74.627836 83.601126 64.520218 -5.049733 -13.080756 7.619792 0.256392 1.039891 0.141404
-97.368795 64.691820 86.295329 172.170616 -36.319784 -2.768915 1.871488 21.642146 2.453581 0.203695 2.950787 0.419199 0.362940 4.909327 0.727894 1.691732 18.370289 2.925850 -1.387592 18.773007 -1.740389 -2.035846 -1.058192 -2.761336 -3.654380 1.319932 -4.424684 -2.917623 -2.890142 3.425548 145.802832 -84.046567 -132.989574 1.956804 -0.369442 -8.333456 -8.059976 -1.716105 -0.486752 -3.625706 -35.159477 14.456545 173.889144 -55.819038 164.284410 -10.030643 -31.181800 26.254189 -5.070441 -44.083276 5.599625 -113.644916 87.923964 -108.480663 0.289922 -9.616844 -4.550606 0.193021 -0.392913 0.109445 -3.173511 -41.254954 5.945343 74.611743 83.615094 64.507704 -5.048788 -13.078847 7.634571 0.253136 1.041206 0.132253
-97.357872 64.688480 86.280055 172.146777 -36.317359 -2.738183 1.892140 21.675100 2.452418 0.202713 2.960091 0.421358 0.370713 4.912420 0.727382 1.735444 18.442919 2.951167 -1.362185 18.799565 -1.744478 -1.943037 -0.891100 -2.764688 -3.705274 1.349712 -4.403820 -2.940061 -2.927041 3.383957 146.155866 -83.937352 -133.364322 1.967770 -0.326400 -8.266071 -8.123390 -1.706726 -0.448006 -3.511207 -35.546015 14.286636 173.515871 -56.063684 164.585986 -10.050547 -31.522236 26.592757 -5.046900 -44.093621 5.581068 -114.919382 87.948863 -109.756382 0.291837 -9.641683 -4.548797 0.165988 -0.390381 0.091865 -3.129475 -41.253002 5.928022 74.631788 83.644584 64.522380 -5.034578 -13.074591 7.658113 0.242786 1.030206 0.123886
-97.345448 64.682100 86.267732 172.111856 -36.299096 -2.705538 1.924556 21.689562 2.457493 0.205505 2.965834 0.419726 0.377283 4.921413 0.730683 1.756172 18.456168 2.954929 -1.301728 18.895674 -1.735220 -1.836397 -0.711922 -2.767133 -3.734112 1.444172 -4.370061 -2.959449 -2.994486 3.335318 146.472748 -83.870126 -133.703256 1.974873 -0.295941 -8.223085 -8.146053 -1.646988 -0.393181 -3.441047 -35.904814 14.030010 173.226067 -56.441080 164.793560 -10.045798 -31.732507 26.930846 -5.019322 -44.114502 5.574704 -115.844668 87.961670 -110.692640 0.324649 -9.688719 -4.537887 0.113664 -0.363594 0.074823 -3.082516 -41.265326 5.916925 74.637645 83.668489 64.524264 -5.018911 -13.076700 7.674794 0.228208 1.029533 0.120881
-97.330693 64.676991 86.252596 172.066280 -36.298568 -2.671575 1.975575 21.721827 2.472930 0.198953 2.969698 0.418574 0.395651 4.936064 0.733425 1.782848 18.472689 2.959796 -1.235026 18.994984 -1.722771 -1.719512 -0.526740 -2.765600 -3.767469 1.540085 -4.332998 -2.984049 -3.067640 3.278835 146.947948 -83.817213 -134.193917 1.967965 -0.296120 -8.215139 -8.151175 -1.603380 -0.323508 -3.436965 -36.219482 13.711876 173.087391 -56.917205 164.870440 -9.999953 -31.728196 27.210223 -4.980662 -44.129508 5.593115 -116.530286 87.954874 -111.383457 0.299650 -9.688391 -4.543744 0.113058 -0.377649 0.082339 -3.022627 -41.257687 5.907773 74.627958 83.696419 64.517707 -5.009274 -13.077181 7.699943 0.228894 1.022293 0.109188
-97.316561 64.671186 86.236820 172.029739 -36.302522 -2.636827 2.027467 21.762593 2.487542 0.194116 2.972806 0.417739 0.415227 4.955619 0.737241 1.816448 18.492655 2.967817 -1.167304 19.090773 -1.706602 -1.601952 -0.348014 -2.757472 -3.807914 1.638444 -4.295452 -3.017126 -3.148334 3.214939 147.629434 -83.826310 -134.877480 2.009979 -0.349441 -8.226656 -8.142994 -1.572672 -0.235073 -3.462079 -36.505882 13.318091 173.239397 -57.483939 164.725046 -9.837002 -31.525423 27.323063 -4.939059 -44.136651 5.586919 -117.492652 87.965494 -112.339023 0.286085 -9.701711 -4.556085 0.102897 -0.379821 0.081998 -2.979617 -41.256188 5.893403 74.739863 83.707848 64.623588 -4.995896 -13.038290 7.734395 0.221947 0.972127 0.080949
